<svg width="22" height="22" viewBox="0 0 22 22" fill="none" xmlns="http://www.w3.org/2000/svg">
<path d="M19.8666 0.532715H1.15996C0.519531 0.532715 0 1.05377 0 1.69608V20.4575C0 21.1007 0.519531 21.6209 1.15996 21.6209H11.2299V13.4545H8.48859V10.2728H11.2299V7.92236C11.2299 5.19935 12.8893 3.7179 15.3117 3.7179C16.4725 3.7179 17.4704 3.80314 17.7613 3.8418V6.6887H16.0783C14.7641 6.6887 14.5083 7.32222 14.5083 8.24483V10.2754H17.6483L17.2409 13.465H14.5083V21.6209H19.8657C20.5079 21.6209 21.0265 21.1007 21.0265 20.4575V1.69608C21.0265 1.05377 20.5079 0.532715 19.8666 0.532715Z" fill="#3B5998"/>
</svg>
