<svg width="22" height="22" viewBox="0 0 22 22" fill="none" xmlns="http://www.w3.org/2000/svg">
<path d="M17.9137 17.9706H14.8001V13.0773C14.8001 11.9104 14.7764 10.4088 13.1775 10.4088C11.5541 10.4088 11.3062 11.6784 11.3062 12.9912V17.9706H8.19247V7.90806H11.1835V9.27967H11.2238C11.6417 8.48886 12.658 7.65412 14.1763 7.65412C17.3311 7.65412 17.9146 9.73658 17.9146 12.4473V17.9706H17.9137ZM4.67578 6.53118C3.67351 6.53118 2.86837 5.71753 2.86837 4.71672C2.86837 3.71679 3.67439 2.90401 4.67578 2.90401C5.67454 2.90401 6.48406 3.71679 6.48406 4.71672C6.48406 5.71753 5.67366 6.53118 4.67578 6.53118ZM6.237 17.9706H3.11456V7.90806H6.237V17.9706ZM19.4715 0H1.55158C0.693876 0 0 0.680093 0 1.51923V19.5689C0 20.4089 0.693876 21.0882 1.55158 21.0882H19.4688C20.3257 21.0882 21.0265 20.4089 21.0265 19.5689V1.51923C21.0265 0.680093 20.3257 0 19.4688 0H19.4715Z" fill="#0077B5"/>
</svg>
