<svg width="21" height="20" viewBox="0 0 21 20" fill="none" xmlns="http://www.w3.org/2000/svg">
<path d="M18.9658 0.800003H1.73864C1.14885 0.800003 0.67041 1.2744 0.67041 1.8592V18.9408C0.67041 19.5264 1.14885 20 1.73864 20H11.0122V12.5648H8.48767V9.668H11.0122V7.528C11.0122 5.0488 12.5403 3.7 14.7712 3.7C15.8402 3.7 16.7592 3.7776 17.027 3.8128V6.4048H15.4771C14.2669 6.4048 14.0313 6.9816 14.0313 7.8216V9.6704H16.923L16.5478 12.5744H14.0313V20H18.965C19.5564 20 20.034 19.5264 20.034 18.9408V1.8592C20.034 1.2744 19.5564 0.800003 18.9658 0.800003Z" fill="white"/>
</svg>
