<svg width="20" height="20" viewBox="0 0 20 20" fill="none" xmlns="http://www.w3.org/2000/svg">
<path d="M16.497 16.3616H13.6296V11.9064C13.6296 10.844 13.6078 9.4768 12.1354 9.4768C10.6403 9.4768 10.412 10.6328 10.412 11.828V16.3616H7.54456V7.2H10.299V8.4488H10.3361C10.721 7.7288 11.6569 6.9688 13.0551 6.9688C15.9605 6.9688 16.4978 8.8648 16.4978 11.3328V16.3616H16.497ZM4.30599 5.9464C3.38299 5.9464 2.64152 5.2056 2.64152 4.2944C2.64152 3.384 3.3838 2.644 4.30599 2.644C5.22576 2.644 5.97126 3.384 5.97126 4.2944C5.97126 5.2056 5.22495 5.9464 4.30599 5.9464ZM5.74374 16.3616H2.86824V7.2H5.74374V16.3616ZM17.9315 0H1.42888C0.639 0 0 0.6192 0 1.3832V17.8168C0 18.5816 0.639 19.2 1.42888 19.2H17.9291C18.7182 19.2 19.3636 18.5816 19.3636 17.8168V1.3832C19.3636 0.6192 18.7182 0 17.9291 0H17.9315Z" fill="white"/>
</svg>
