<svg width="21" height="20" viewBox="0 0 21 20" fill="none" xmlns="http://www.w3.org/2000/svg">
<path d="M10.4548 0.800003C5.10556 0.800003 0.772949 5.0984 0.772949 10.4C0.772949 14.6424 3.54679 18.24 7.39289 19.508C7.87698 19.5984 8.05448 19.3016 8.05448 19.0464C8.05448 18.8184 8.04642 18.2144 8.04238 17.4144C5.34922 17.9936 4.78122 16.1264 4.78122 16.1264C4.3407 15.0184 3.70412 14.7224 3.70412 14.7224C2.82711 14.1272 3.77189 14.1392 3.77189 14.1392C4.74411 14.2064 5.25482 15.128 5.25482 15.128C6.11812 16.596 7.52118 16.172 8.07465 15.9264C8.16179 15.3056 8.4111 14.8824 8.68784 14.6424C6.53767 14.4024 4.27777 13.5768 4.27777 9.8984C4.27777 8.8504 4.65294 7.9944 5.27419 7.3224C5.16527 7.08 4.83851 6.104 5.3589 4.7816C5.3589 4.7816 6.16976 4.524 8.0214 5.7656C8.79595 5.552 9.6189 5.4464 10.4419 5.4416C11.2648 5.4464 12.0878 5.552 12.8623 5.7656C14.7019 4.524 15.5127 4.7816 15.5127 4.7816C16.0331 6.104 15.7063 7.08 15.6095 7.3224C16.2267 7.9944 16.6019 8.8504 16.6019 9.8984C16.6019 13.5864 14.3388 14.3984 12.1846 14.6344C12.5234 14.9224 12.8381 15.5112 12.8381 16.4104C12.8381 17.6952 12.826 18.7272 12.826 19.0392C12.826 19.2912 12.9954 19.5912 13.4916 19.4952C17.3652 18.236 20.1366 14.636 20.1366 10.4C20.1366 5.0984 15.8016 0.800003 10.4548 0.800003Z" fill="white"/>
</svg>
