<svg width="22" height="21" viewBox="0 0 22 21" fill="none" xmlns="http://www.w3.org/2000/svg">
<path d="M10.5133 0.205811C4.70469 0.205811 0 4.92692 0 10.7499C0 15.4095 3.01205 19.3609 7.18845 20.7536C7.71412 20.8529 7.90686 20.5269 7.90686 20.2466C7.90686 19.9962 7.8981 19.3328 7.89372 18.4541C4.96927 19.0903 4.3525 17.0394 4.3525 17.0394C3.87414 15.8225 3.18289 15.4974 3.18289 15.4974C2.23057 14.8436 3.25649 14.8568 3.25649 14.8568C4.31219 14.9306 4.86677 15.9428 4.86677 15.9428C5.8042 17.5552 7.32775 17.0895 7.92876 16.8198C8.02338 16.1379 8.2941 15.6731 8.5946 15.4095C6.25978 15.1459 3.80581 14.2391 3.80581 10.199C3.80581 9.0479 4.21319 8.10772 4.8878 7.36963C4.76952 7.10339 4.4147 6.03141 4.97979 4.57897C4.97979 4.57897 5.86027 4.29603 7.87094 5.65973C8.712 5.42513 9.60563 5.30914 10.4993 5.30387C11.3929 5.30914 12.2865 5.42513 13.1276 5.65973C15.1251 4.29603 16.0056 4.57897 16.0056 4.57897C16.5707 6.03141 16.2158 7.10339 16.1107 7.36963C16.7809 8.10772 17.1883 9.0479 17.1883 10.199C17.1883 14.2496 14.7309 15.1415 12.3916 15.4007C12.7596 15.717 13.1013 16.3637 13.1013 17.3514C13.1013 18.7625 13.0882 19.896 13.0882 20.2387C13.0882 20.5155 13.2721 20.845 13.8109 20.7395C18.0171 19.3565 21.0265 15.4025 21.0265 10.7499C21.0265 4.92692 16.3192 0.205811 10.5133 0.205811Z" fill="#181717"/>
</svg>
