<svg width="21" height="17" viewBox="0 0 21 17" fill="none" xmlns="http://www.w3.org/2000/svg">
<path d="M20.0653 2.6584C19.3513 2.9696 18.5888 3.1816 17.786 3.2784C18.6041 2.7896 19.2335 2.0192 19.5312 1.1C18.7639 1.544 17.9135 1.8672 17.0083 2.0472C16.2853 1.28 15.255 0.800003 14.111 0.800003C11.9188 0.800003 10.1414 2.5624 10.1414 4.7336C10.1414 5.0456 10.1777 5.3456 10.2439 5.6328C6.94401 5.4784 4.01929 3.9072 2.06195 1.532C1.71744 2.1096 1.52461 2.7808 1.52461 3.512C1.52461 4.88 2.22654 6.0824 3.28993 6.7888C2.63883 6.768 2.02645 6.5904 1.49234 6.296V6.3448C1.49234 8.2528 2.85828 9.844 4.67604 10.2064C4.34283 10.2952 3.99105 10.3432 3.63041 10.3432C3.37707 10.3432 3.13421 10.3192 2.89136 10.2744C3.40046 11.8368 4.86403 12.976 6.60595 13.008C5.2505 14.0632 3.53278 14.692 1.68275 14.692C1.36809 14.692 1.05424 14.6736 0.73877 14.6384C2.50489 15.7536 4.58568 16.4056 6.83589 16.4056C14.1408 16.4056 18.1305 10.4088 18.1305 5.2168C18.1305 5.0496 18.1305 4.8808 18.1184 4.7128C18.8938 4.1616 19.5707 3.4648 20.1032 2.6744L20.0653 2.6584Z" fill="white"/>
</svg>
