<svg width="22" height="18" viewBox="0 0 22 18" fill="none" xmlns="http://www.w3.org/2000/svg">
<path d="M20.9862 2.90078C20.2109 3.24258 19.383 3.47543 18.5112 3.58175C19.3996 3.04488 20.083 2.19872 20.4063 1.18912C19.5731 1.67679 18.6497 2.03177 17.6667 2.22947C16.8817 1.38682 15.7629 0.859619 14.5206 0.859619C12.1402 0.859619 10.2101 2.79534 10.2101 5.18005C10.2101 5.52274 10.2496 5.85224 10.3214 6.16768C6.73813 5.9981 3.56225 4.27239 1.43681 1.6636C1.06272 2.29801 0.853327 3.03521 0.853327 3.83832C0.853327 5.34085 1.61554 6.6615 2.77025 7.43737C2.06323 7.41452 1.39827 7.21945 0.818283 6.8961V6.9497C0.818283 9.04534 2.30153 10.793 4.2754 11.1911C3.91357 11.2886 3.53158 11.3413 3.13996 11.3413C2.86487 11.3413 2.60116 11.3149 2.33745 11.2657C2.89027 12.9818 4.47953 14.233 6.37104 14.2682C4.89919 15.4271 3.03396 16.1178 1.02504 16.1178C0.683363 16.1178 0.342558 16.0976 0 16.0589C1.9178 17.2838 4.17727 17.9999 6.62073 17.9999C14.553 17.9999 18.8853 11.4134 18.8853 5.71077C18.8853 5.52713 18.8853 5.34173 18.8722 5.15721C19.7141 4.5518 20.4492 3.78648 21.0274 2.91835L20.9862 2.90078Z" fill="#1DA1F2"/>
</svg>
